<svg id="ImportedIcons" xmlns="http://www.w3.org/2000/svg" width="96" height="96" viewBox="0 0 96 96">
  <defs>
    <style>
      .cls-1 {
        fill: #b3b3b3;
      }
    </style>
  </defs>
  <path class="cls-1" d="M91.774,34.269l-4.243-4.243a1.5,1.5,0,0,0-2.121,0L50.055,65.381a1.4999,1.4999,0,0,0-.332.5L47.276,72H13.753A.754.754,0,0,1,13,71.247V31.753A.754.754,0,0,1,13.753,31H22.5A1.5,1.5,0,0,0,24,29.5V22.753A.754.754,0,0,1,24.753,22H36.247a.754.754,0,0,1,.753.753V29.5A1.5,1.5,0,0,0,38.5,31h11A1.5,1.5,0,0,0,51,29.5V22.753A.754.754,0,0,1,51.753,22H63.247a.754.754,0,0,1,.753.753V29.5A1.5,1.5,0,0,0,65.5,31h8.747a.754.754,0,0,1,.753.753,1.5,1.5,0,0,0,3,0A3.757,3.757,0,0,0,74.247,28H67V22.753A3.757,3.757,0,0,0,63.247,19H51.753A3.757,3.757,0,0,0,48,22.753V28H40V22.753A3.757,3.757,0,0,0,36.247,19H24.753A3.757,3.757,0,0,0,21,22.753V28H13.753A3.757,3.757,0,0,0,10,31.753V71.247A3.757,3.757,0,0,0,13.753,75H47.625a1.49954,1.49954,0,0,0,.311-.033,1.435,1.435,0,0,0,.907-.061l7.071-2.829a1.5,1.5,0,0,0,.5-.332L91.774,36.39A1.5,1.5,0,0,0,91.774,34.269ZM54.515,69.406,50.979,70.82l1.414-3.536L86.471,33.208l2.122,2.122Z"/>
  <path class="cls-1" d="M76.5,75H65.308a1.5,1.5,0,0,1,0-3H75V58a1.5,1.5,0,0,1,3,0V73.5A1.5,1.5,0,0,1,76.5,75Z"/>
</svg>
