<svg id="ImportedIcons" xmlns="http://www.w3.org/2000/svg" width="96" height="96" viewBox="0 0 96 96">
  <defs>
    <style>
      .cls-1 {
        fill: #b3b3b3;
      }
    </style>
  </defs>
  <path class="cls-1" d="M78.82,23.63l-4.95-4.95a1.5,1.5,0,0,0-2-.111L66.544,22.83a3.636,3.636,0,0,0-1.406,2.6,3.12275,3.12275,0,0,0,.143,1.126L47.646,44.2l-1.06-1.061a3.584,3.584,0,0,0-4.95,0l-.707.707A3.477,3.477,0,0,0,39.9,46.318a3.515,3.515,0,0,0,.2,1.177l-1.877,1.877a3.513,3.513,0,0,1-1.368.845l-1.78.593a7.53712,7.53712,0,0,0-2.931,1.812L18.3,66.471a8.5,8.5,0,0,0-.00019,12.02081L18.3,78.492l.707.707a8.5,8.5,0,0,0,12.02081.00018L31.028,79.199,44.877,65.351a7.54213,7.54213,0,0,0,1.813-2.932l.592-1.779a3.518,3.518,0,0,1,.846-1.368L50,57.395a3.571,3.571,0,0,0,3.652-.824l.707-.707a3.5,3.5,0,0,0,.00025-4.94975L54.359,50.914,53.3,49.854,70.939,32.217a3.21,3.21,0,0,0,1.126.143,3.636,3.636,0,0,0,2.6-1.406l4.261-5.326A1.5,1.5,0,0,0,78.82,23.63ZM52.243,53.743l-.707.707a.5.5,0,0,1-.70711.00089L50.828,54.45a1.544,1.544,0,0,0-2.121,0l-2.7,2.7a6.53215,6.53215,0,0,0-1.571,2.541l-.592,1.779a4.528,4.528,0,0,1-1.087,1.759L28.908,77.077a5.5,5.5,0,0,1-7.778,0l-.707-.707a5.5,5.5,0,0,1,0-7.778L34.271,54.744a4.523,4.523,0,0,1,1.759-1.087l1.78-.593a6.527,6.527,0,0,0,2.54-1.57l2.7-2.7a1.5,1.5,0,0,0,0-2.121.5.5,0,0,1-.00089-.70711L43.05,45.965l.708-.707a.5.5,0,0,1,.707,0l7.778,7.779a.5.5,0,0,1,0,.707ZM72.327,29.08a.677.677,0,0,1-.428.285c-.023,0-.068,0-.15-.077a1.5,1.5,0,0,0-2.121,0L51.182,47.733l-1.415-1.415L68.213,27.873a1.5,1.5,0,0,0,0-2.121c-.081-.081-.079-.125-.077-.15a.677.677,0,0,1,.285-.428L72.7,21.751,75.749,24.8Z"/>
  <path class="cls-1" d="M74.723,81.049a4.19394,4.19394,0,0,1-2.985-1.237L53.21,61.284a1.5,1.5,0,0,1,2.121-2.121L73.859,77.691a1.251,1.251,0,0,0,1.727,0l4.556-4.555a1.223,1.223,0,0,0,0-1.728L59.611,50.876a1.5,1.5,0,0,1,2.121-2.121L82.263,69.287a4.228,4.228,0,0,1,0,5.971l-4.556,4.555A4.192,4.192,0,0,1,74.723,81.049Z"/>
  <path class="cls-1" d="M22.015,46.109a2.682,2.682,0,0,1-1.91-.792l-6.784-6.784a2.7,2.7,0,0,1-.00162-3.81837L13.321,34.713l2.559-2.559a2.914,2.914,0,0,1,2.131-.923,2.992,2.992,0,0,1,.959.166l.692-.721a3.9,3.9,0,0,1,.435-5l8.386-8.387c7.168-7.168,18.819-4.635,23.032-2.379.565.3,2.284,1.223,1.979,2.745-.36,1.8-2.394,1.858-4.362,1.911-2,.054-4.5.121-5.777,1.4-.408.409-1.9,2.065-3.015,3.307l.125.125a3.908,3.908,0,0,1,.126,5.389l7.875,7.875a1.5,1.5,0,0,1-2.121,2.121L37.411,30.85a1.5,1.5,0,0,1-.00068-2.12132l.00046-.00045L38.343,27.796a.905.905,0,0,0,0-1.278L37.218,25.39a1.5,1.5,0,0,1-.06-2.058c.343-.385,3.369-3.78,4.077-4.488,1.754-1.754,4.3-2.121,6.492-2.231a22.96123,22.96123,0,0,0-6.44-1.024c-3.1-.049-7.448.587-10.683,3.821L22.219,27.8a.9.9,0,0,0-.00723,1.27277L22.219,29.08l.55.529a1.5,1.5,0,0,1,.042,2.12l-2.493,2.6a1.5,1.5,0,0,1-1.074.461,1.589,1.589,0,0,1-1.079-.449.62792.62792,0,0,0-.188-.1L15.65,36.622l6.365,6.364,2.348-2.348c-.027-.021-.149-.269-.187-.321a1.5,1.5,0,0,1,.168-1.967l2.628-2.534a1.5,1.5,0,0,1,2.088.005.907.907,0,0,0,1.27-.009l1.429-1.429a1.543,1.543,0,0,1,2.122,0l6.284,6.284a1.5,1.5,0,0,1-2.121,2.121L32.82,37.564l-.369.369a3.922,3.922,0,0,1-4.237.852l-1.019.983a2.946,2.946,0,0,1-.711,2.991l-2.559,2.559A2.683,2.683,0,0,1,22.015,46.109ZM15.447,36.83l-.005.006Z"/>
</svg>
